<mxfile host="65bd71144e">
    <diagram id="mdZ2ZA_p9aVP6wccNuXf" name="Page-1">
        <mxGraphModel dx="1165" dy="722" grid="1" gridSize="10" guides="1" tooltips="1" connect="1" arrows="1" fold="1" page="1" pageScale="1" pageWidth="1600" pageHeight="900" math="0" shadow="0">
            <root>
                <mxCell id="0"/>
                <mxCell id="1" parent="0"/>
                <mxCell id="29" value="" style="rounded=1;whiteSpace=wrap;html=1;fontFamily=Verdana;fontSize=24;strokeColor=#23445d;strokeWidth=3;fillColor=#bac8d3;arcSize=5;" vertex="1" parent="1">
                    <mxGeometry x="220" y="170" width="770" height="590" as="geometry"/>
                </mxCell>
                <mxCell id="2" value="" style="rounded=0;whiteSpace=wrap;html=1;dashed=1;fillColor=none;strokeColor=#006EAF;fontColor=#ffffff;strokeWidth=3;" vertex="1" parent="1">
                    <mxGeometry x="250" y="200" width="670" height="360" as="geometry"/>
                </mxCell>
                <mxCell id="4" value="Model Inference&lt;br&gt;API Server" style="rounded=1;whiteSpace=wrap;html=1;fontSize=25;arcSize=8;fillColor=#d5e8d4;strokeColor=#82b366;fontStyle=1" vertex="1" parent="1">
                    <mxGeometry x="270" y="230" width="340" height="260" as="geometry"/>
                </mxCell>
                <mxCell id="26" style="edgeStyle=none;html=1;entryX=0.356;entryY=0.999;entryDx=0;entryDy=0;entryPerimeter=0;fontFamily=Verdana;fontSize=24;fontColor=#FF3399;" edge="1" parent="1" source="9" target="4">
                    <mxGeometry relative="1" as="geometry"/>
                </mxCell>
                <mxCell id="9" value="Database" style="shape=cylinder3;whiteSpace=wrap;html=1;boundedLbl=1;backgroundOutline=1;size=15;fontSize=20;strokeColor=#9673a6;strokeWidth=3;fillColor=#e1d5e7;fontStyle=1" vertex="1" parent="1">
                    <mxGeometry x="340" y="580" width="110" height="150" as="geometry"/>
                </mxCell>
                <mxCell id="27" style="edgeStyle=none;html=1;fontFamily=Verdana;fontSize=24;fontColor=#FF3399;" edge="1" parent="1" source="12" target="4">
                    <mxGeometry relative="1" as="geometry"/>
                </mxCell>
                <mxCell id="12" value="Storage Container" style="whiteSpace=wrap;html=1;aspect=fixed;fontSize=20;strokeColor=#d6b656;strokeWidth=3;fillColor=#fff2cc;fontStyle=1" vertex="1" parent="1">
                    <mxGeometry x="565" y="590" width="140" height="140" as="geometry"/>
                </mxCell>
                <mxCell id="13" value="Docker" style="text;html=1;align=center;verticalAlign=middle;resizable=0;points=[];autosize=1;strokeColor=none;fillColor=none;fontSize=24;fontFamily=Verdana;fontStyle=1;fontColor=#004C99;" vertex="1" parent="1">
                    <mxGeometry x="785" y="520" width="110" height="30" as="geometry"/>
                </mxCell>
                <mxCell id="14" value="Streamlit&lt;br&gt;Frontend&lt;br&gt;Server" style="rounded=1;whiteSpace=wrap;html=1;fontFamily=Verdana;fontSize=24;strokeColor=#d79b00;strokeWidth=3;fillColor=#ffe6cc;fontStyle=1" vertex="1" parent="1">
                    <mxGeometry x="705" y="220" width="190" height="280" as="geometry"/>
                </mxCell>
                <mxCell id="15" value="" style="shape=flexArrow;endArrow=classic;startArrow=classic;html=1;fontFamily=Verdana;fontSize=24;fontColor=#004C99;entryX=0;entryY=0.5;entryDx=0;entryDy=0;fillColor=#f8cecc;strokeColor=#b85450;" edge="1" parent="1" source="4" target="14">
                    <mxGeometry width="100" height="100" relative="1" as="geometry">
                        <mxPoint x="610" y="360" as="sourcePoint"/>
                        <mxPoint x="710" y="260" as="targetPoint"/>
                    </mxGeometry>
                </mxCell>
                <mxCell id="23" value="" style="group" vertex="1" connectable="0" parent="1">
                    <mxGeometry x="1088.19" y="330" width="120" height="310" as="geometry"/>
                </mxCell>
                <mxCell id="17" value="" style="shape=image;verticalLabelPosition=bottom;labelBackgroundColor=#ffffff;verticalAlign=top;aspect=fixed;imageAspect=0;image=data:image/png,iVBORw0KGgoAAAANSUhEUgAAARwAAAEzCAMAAADU0EwxAAAAAXNSR0IArs4c6QAAAARnQU1BAACxjwv8YQUAAAFiUExURQAAAAAAAAAAAAAAAAAAAAAAAAAAAAAAAAAAAAAAAAAAAAAAAAAAAAAAAAAAAAAAAAAAAAAAAAAAAAAAAAAAAAAAAAAAAAAAAAAAAAAAAAAAAAAAAAAAAAAAAAAAAAAAAAAAAAAAAAAAAAAAAAAAAAAAAAAAAAAAAAAAAAAAAAAAAAAAAAAAAAAAAAAAAAAAAAAAAAAAAAAAAAAAAAAAAAAAAAAAAAAAAAAAAAAAAAAAAAAAAAAAAAAAAAAAAAAAAAAAAAAAAAAAAAAAAAAAAAAAAAAAAAAAAAAAAAAAAAAAAAAAAAAAAAAAAAAAAAAAAAAAAAAAAAAAAAAAAAAAAAAAAAAAAAAAAAAAAAAAAAAAAAAAAAAAAAAAAAAAAAAAAAAAAAAAAAAAAAAAAAAAAAAAAAAAAAAAAAAAAAAAAAAAAAAAAAAAAAAAAAAAAAAAAAAAAAAAAAAAAAAAAAAAAAAAAETQmVcAAAB1dFJOUwABAwQFBgcICQsMDRASFhgcHiAhIicoKywvMDQ1Njg8P0BBQkNISVBRUlNUVldYWVpdX2BoamxwcXh7fn+AgYeIjo+RkpeYnJ+gpKanqaqur7S2t7m7vL2+v8DDxsfIycrLzM3P19ne3+Di5+7v8vf4+fv9/vxYTk0AAAAJcEhZcwAAFxEAABcRAcom8z8AAAk+SURBVHhe7Z1te+NGFYa9pazprmnAgIEAaQUNhi41lBhMAOE2kGLYFEJD6WpLWqBJWTCpC1T/n3Nmjl7syI+iWPZiXc/9YTUayUdz7hmNRtq92hYhhBBCCCGEEEIIIYQQQgghhBBCCCGEEEIISbkX/PTNx3/dbh7/9mcvPGf51MidB1HcDB69YinVxv1ffmKxG8Ab9yyrenju1OI2g7P7llcd3HndojaFXz1jmdXAt/9tQZvCf/qW2eo8+5bFbA7vti23ldlt2sCJ4/9+w3JbmZ9YxCbxc8ttZd6wgE3ioeW2Mr+3gE3izHJbmaasjfP8yXJbmUcWsElQDoByAJQDWJucl7+0fTywtiesTc6XrX6b+Iq1PWFtcr5m9dvE163tCZSTg3IAlAOgHADlACgHQDkAygFQDoByAJQDoBwA5QAoB0A5AMoBUA6AcgCUA6AcAOUAKAdAOQDKAVAOgHIAlAOgHADlACgHQDkAygFQDoByAJQDoBwA5QAoB0A5AMoBUA6AcgCUA6AcAOUAKAdAOQDKAVAOgHIAlAOgHADlACgHQDkAygFQDoByAJQDoBwA5QAoB0A5AMoBUA6AcgCUA6AcAOUAKAdAOQDKAVAOgHIAlAOgHADlACgHQDkAygFQDoByAJQDoBwA5QAoB0A5AMoBUA6AcgCUA6AcAOUAKAdAOQDKAVAOgHIAlAOgHADlACgHQDkAygFQDoByAJQDoBwA5QAoB0A5AMoBbEzOV61+m9i1tiesTc63Prt9vGRtT1ibnI/+tX18ZG1PWJucJkA5AMoB1CYnsoBN4h3LbWXesoBN4m3LbWV+YwGbxJuW28r8wgI2idcst5V50QI2iZcst5W5d2ERm8P79y231fmhhWwMn7xqmdXA3YcWtCmc3rXM6uD5dy1qM/jgc5ZXPTz/O4vbBP7wBcuqLu78+EMLve38/UefsZxq5PM/+PWf//HP2vjY2lrOx/aLGvjwbw+//0XLp26euVsfjy31ch7ZL2rg05+yTP7PecdSL6e216Dt4ebfQWr7urA9UA6AcgCUA6AcAOUAKAdAOQDKAVAOgHIAlAN421Iv54/2i6Zxv7eU9yz1cs7tFwXU93cIT4HvWn7rom/X2UpetiTWxXfsOlsJRw6AcgCUA6AcAOUAKAdAOQDKAVAOgHIAlAOgHMD3LIl18cCus5V88y/r5UW7DiGEEEIIIYQQQgghhBBCCCGEEELI0yMIw7BjZc9BGI6suBoSub5/WdMZX8VxfL5nu5shlEt2reyJ4viJFVdDIk+sWEzv2Ao34Ez/oU4c92x3Mzw9Oe3x7ObXGTs18cx2N8TTk3NQ5TpyT13KPbrZgbMlcroSa2DlDbIdcnoSa9fKG2Q75ATXWrkRsJydYBQOg7btGZ3gMNzfsR1peBDI7DoI+/Mrgrwcd0qrM5Rne/K7vUDm2KkcSH+1NGw7CEYSa+CjOLpybjhcmIF2ZRHSn3/WL8SsCpLTm8hB5cmBr1D2nvi6q2QOkHJrf6Y1ubMUqTI5ekr7WP4ULn3zLUocW8IgrDbRcEd2T21vrl2DS193ka2trsWsCpDT02WXcZaMHnumKhPf6VLqaRLSt24/RU9JS53sPwvrlpgLclDYQ/enQw/I7Zhx6s6VIZIKi+Nk9XQ9ZlWWy+lI+6eHMpbHUznHFs0nUpyG/SCUs+JzVyUF3ZEOWrj9pCqTI6dchOGx61693iiUdK5kEe0uDsPuhKEO4SM5Wer3tOr4IOiHTrdN01q+CPeDkUo/dFUFMauyXE5fYvvbVXt96kr7cvaJ7wX9oRsqso1nh91Wb3HwSn0mJ575w3pzHblSbkIuDZubkCXnqRUHUuuHjg6uieubtqrQZhfFrMpyOUdJFr5t2kVtsZT2gTRoqu2RY7F26TWkPicneV87T5xkcsrDZnJ25FZLZxV5p3Ah2lJ54WqkJ2UykKFTGLMqy+XIUI5chXAQuDE0lJPTR0RbWjGUrdRZkgvIgUzOZdI4ffC4QianPGwmZ+/0PMtTB4xudQilxibxVDq1MGZVlsvRiW8y/xiUwZTzIP2mc5+cduYrFtDfp6UTX/Jhk4IFKw+7ZJ2TxJJbLQvgm1wYsyrL5egAlqF5mFuZyjUimaENaZI2X05Kbr955EAmZ+xLhXLKwxbJ2R246V2Lcgst9k9hzKosl9MK7FE+nQxsINtSIkNPlE3x9x85kMlJR3WBnPKw83J6o6MoXQpohewsDozCmFXRts6vNFM5rZ5Mnp6Zb6ft5fCV++7oInIgk5Mu1wrkSM0CvjILm5ezly1p1JBWyWbxkeCOz2EHqqBtTVflDhmj6UTcPUz8nOjgkRvtVFYbOaRSDs4HSJADN5NTHjYnx62aZakTyYtFEksWYotyCmNWRS87/zFTwubvz85gootANwHIWL0+vcixFeWUh83kBOrmqO93kljSg3allMKYVdEvJXNR9P+8tmj5QFqkq0AZ0OmgSpHzV5RTHjaTIwuMWXq76YSp2/yqo9UNR/KqXBizMqI4XYMoekFtVWc4jtIHuTwYtRXytpJ7RzichLrunMsijxy4mZzysJkcmWayca2zj27nFnmykJJohTEro3n7lxHHjjyiZhq1I6MlzUgvKBttYzrM9FGvq5e5LPLIgRI5vnCDsKmcjhTScd3VW0wLOtrTR5s8xOWyhTEr466QXm9f5xfvSi7yxF5m23JTu7W4dNXMmtyW4+6dQja3kqPNt/ilYVM5+jE5uV3ca5R7j9L7Kv/CpfddUczq6BpcVtyDIBiGGiW5y/TN7cKF7+rwdbO2Wxi69dyutsz1hmxvJUe7O+q795LSsJkcbcrYNXBPHqtJtQa4ci0ciT33MloUszptvbFynCczjfseMo0it56yITrUS8aXvs5/5JHCreTo26LghmlZ2EyO+8YzjUJ3aig7fnYeuACRG0s23gti3oaBe1Z7ZsdZmLELr8zSWSm3MDzyZ0rxVnL0m4jgu7QkbCan1bd1uwzrPV2w2pDoOQfKadK512Pejv4kUhFRNLRZwNPxHXThv0gZ8hS7kr47Stog66v84Qw5YCsoKaW3/G62Hts/iaIomUhh2K7sJS3rjKWtMnZ0yOyHYdJt7dGJzown+Y5ajEkIIYQQQgghhBBCCCGEEEIIIYQQQgjZKK3W/wC7pgcy1yBN6wAAAABJRU5ErkJggg==;" vertex="1" parent="23">
                    <mxGeometry width="95.75" height="103.5" as="geometry"/>
                </mxCell>
                <mxCell id="21" value="" style="shape=image;verticalLabelPosition=bottom;labelBackgroundColor=#ffffff;verticalAlign=top;aspect=fixed;imageAspect=0;image=data:image/png,iVBORw0KGgoAAAANSUhEUgAAARwAAAEzCAMAAADU0EwxAAAAAXNSR0IArs4c6QAAAARnQU1BAACxjwv8YQUAAAFiUExURQAAAAAAAAAAAAAAAAAAAAAAAAAAAAAAAAAAAAAAAAAAAAAAAAAAAAAAAAAAAAAAAAAAAAAAAAAAAAAAAAAAAAAAAAAAAAAAAAAAAAAAAAAAAAAAAAAAAAAAAAAAAAAAAAAAAAAAAAAAAAAAAAAAAAAAAAAAAAAAAAAAAAAAAAAAAAAAAAAAAAAAAAAAAAAAAAAAAAAAAAAAAAAAAAAAAAAAAAAAAAAAAAAAAAAAAAAAAAAAAAAAAAAAAAAAAAAAAAAAAAAAAAAAAAAAAAAAAAAAAAAAAAAAAAAAAAAAAAAAAAAAAAAAAAAAAAAAAAAAAAAAAAAAAAAAAAAAAAAAAAAAAAAAAAAAAAAAAAAAAAAAAAAAAAAAAAAAAAAAAAAAAAAAAAAAAAAAAAAAAAAAAAAAAAAAAAAAAAAAAAAAAAAAAAAAAAAAAAAAAAAAAAAAAAAAAAAAAAAAAAAAAAAAAAAAAETQmVcAAAB1dFJOUwABAwQFBgcICQsMDRASFhgcHiAhIicoKywvMDQ1Njg8P0BBQkNISVBRUlNUVldYWVpdX2BoamxwcXh7fn+AgYeIjo+RkpeYnJ+gpKanqaqur7S2t7m7vL2+v8DDxsfIycrLzM3P19ne3+Di5+7v8vf4+fv9/vxYTk0AAAAJcEhZcwAAFxEAABcRAcom8z8AAAk+SURBVHhe7Z1te+NGFYa9pazprmnAgIEAaQUNhi41lBhMAOE2kGLYFEJD6WpLWqBJWTCpC1T/n3Nmjl7syI+iWPZiXc/9YTUayUdz7hmNRtq92hYhhBBCCCGEEEIIIYQQQgghhBBCCCGEEEIISbkX/PTNx3/dbh7/9mcvPGf51MidB1HcDB69YinVxv1ffmKxG8Ab9yyrenju1OI2g7P7llcd3HndojaFXz1jmdXAt/9tQZvCf/qW2eo8+5bFbA7vti23ldlt2sCJ4/9+w3JbmZ9YxCbxc8ttZd6wgE3ioeW2Mr+3gE3izHJbmaasjfP8yXJbmUcWsElQDoByAJQDWJucl7+0fTywtiesTc6XrX6b+Iq1PWFtcr5m9dvE163tCZSTg3IAlAOgHADlACgHQDkAygFQDoByAJQDoBwA5QAoB0A5AMoBUA6AcgCUA6AcAOUAKAdAOQDKAVAOgHIAlAOgHADlACgHQDkAygFQDoByAJQDoBwA5QAoB0A5AMoBUA6AcgCUA6AcAOUAKAdAOQDKAVAOgHIAlAOgHADlACgHQDkAygFQDoByAJQDoBwA5QAoB0A5AMoBUA6AcgCUA6AcAOUAKAdAOQDKAVAOgHIAlAOgHADlACgHQDkAygFQDoByAJQDoBwA5QAoB0A5AMoBUA6AcgCUA6AcAOUAKAdAOQDKAVAOgHIAlAOgHADlACgHQDkAygFQDoByAJQDoBwA5QAoB0A5AMoBbEzOV61+m9i1tiesTc63Prt9vGRtT1ibnI/+tX18ZG1PWJucJkA5AMoB1CYnsoBN4h3LbWXesoBN4m3LbWV+YwGbxJuW28r8wgI2idcst5V50QI2iZcst5W5d2ERm8P79y231fmhhWwMn7xqmdXA3YcWtCmc3rXM6uD5dy1qM/jgc5ZXPTz/O4vbBP7wBcuqLu78+EMLve38/UefsZxq5PM/+PWf//HP2vjY2lrOx/aLGvjwbw+//0XLp26euVsfjy31ch7ZL2rg05+yTP7PecdSL6e216Dt4ebfQWr7urA9UA6AcgCUA6AcAOUAKAdAOQDKAVAOgHIAlAN421Iv54/2i6Zxv7eU9yz1cs7tFwXU93cIT4HvWn7rom/X2UpetiTWxXfsOlsJRw6AcgCUA6AcAOUAKAdAOQDKAVAOgHIAlAOgHMD3LIl18cCus5V88y/r5UW7DiGEEEIIIYQQQgghhBBCCCGEEELI0yMIw7BjZc9BGI6suBoSub5/WdMZX8VxfL5nu5shlEt2reyJ4viJFVdDIk+sWEzv2Ao34Ez/oU4c92x3Mzw9Oe3x7ObXGTs18cx2N8TTk3NQ5TpyT13KPbrZgbMlcroSa2DlDbIdcnoSa9fKG2Q75ATXWrkRsJydYBQOg7btGZ3gMNzfsR1peBDI7DoI+/Mrgrwcd0qrM5Rne/K7vUDm2KkcSH+1NGw7CEYSa+CjOLpybjhcmIF2ZRHSn3/WL8SsCpLTm8hB5cmBr1D2nvi6q2QOkHJrf6Y1ubMUqTI5ekr7WP4ULn3zLUocW8IgrDbRcEd2T21vrl2DS193ka2trsWsCpDT02WXcZaMHnumKhPf6VLqaRLSt24/RU9JS53sPwvrlpgLclDYQ/enQw/I7Zhx6s6VIZIKi+Nk9XQ9ZlWWy+lI+6eHMpbHUznHFs0nUpyG/SCUs+JzVyUF3ZEOWrj9pCqTI6dchOGx61693iiUdK5kEe0uDsPuhKEO4SM5Wer3tOr4IOiHTrdN01q+CPeDkUo/dFUFMauyXE5fYvvbVXt96kr7cvaJ7wX9oRsqso1nh91Wb3HwSn0mJ575w3pzHblSbkIuDZubkCXnqRUHUuuHjg6uieubtqrQZhfFrMpyOUdJFr5t2kVtsZT2gTRoqu2RY7F26TWkPicneV87T5xkcsrDZnJ25FZLZxV5p3Ah2lJ54WqkJ2UykKFTGLMqy+XIUI5chXAQuDE0lJPTR0RbWjGUrdRZkgvIgUzOZdI4ffC4QianPGwmZ+/0PMtTB4xudQilxibxVDq1MGZVlsvRiW8y/xiUwZTzIP2mc5+cduYrFtDfp6UTX/Jhk4IFKw+7ZJ2TxJJbLQvgm1wYsyrL5egAlqF5mFuZyjUimaENaZI2X05Kbr955EAmZ+xLhXLKwxbJ2R246V2Lcgst9k9hzKosl9MK7FE+nQxsINtSIkNPlE3x9x85kMlJR3WBnPKw83J6o6MoXQpohewsDozCmFXRts6vNFM5rZ5Mnp6Zb6ft5fCV++7oInIgk5Mu1wrkSM0CvjILm5ezly1p1JBWyWbxkeCOz2EHqqBtTVflDhmj6UTcPUz8nOjgkRvtVFYbOaRSDs4HSJADN5NTHjYnx62aZakTyYtFEksWYotyCmNWRS87/zFTwubvz85gootANwHIWL0+vcixFeWUh83kBOrmqO93kljSg3allMKYVdEvJXNR9P+8tmj5QFqkq0AZ0OmgSpHzV5RTHjaTIwuMWXq76YSp2/yqo9UNR/KqXBizMqI4XYMoekFtVWc4jtIHuTwYtRXytpJ7RzichLrunMsijxy4mZzysJkcmWayca2zj27nFnmykJJohTEro3n7lxHHjjyiZhq1I6MlzUgvKBttYzrM9FGvq5e5LPLIgRI5vnCDsKmcjhTScd3VW0wLOtrTR5s8xOWyhTEr466QXm9f5xfvSi7yxF5m23JTu7W4dNXMmtyW4+6dQja3kqPNt/ilYVM5+jE5uV3ca5R7j9L7Kv/CpfddUczq6BpcVtyDIBiGGiW5y/TN7cKF7+rwdbO2Wxi69dyutsz1hmxvJUe7O+q795LSsJkcbcrYNXBPHqtJtQa4ci0ciT33MloUszptvbFynCczjfseMo0it56yITrUS8aXvs5/5JHCreTo26LghmlZ2EyO+8YzjUJ3aig7fnYeuACRG0s23gti3oaBe1Z7ZsdZmLELr8zSWSm3MDzyZ0rxVnL0m4jgu7QkbCan1bd1uwzrPV2w2pDoOQfKadK512Pejv4kUhFRNLRZwNPxHXThv0gZ8hS7kr47Stog66v84Qw5YCsoKaW3/G62Hts/iaIomUhh2K7sJS3rjKWtMnZ0yOyHYdJt7dGJzown+Y5ajEkIIYQQQgghhBBCCCGEEEIIIYQQQgjZKK3W/wC7pgcy1yBN6wAAAABJRU5ErkJggg==;" vertex="1" parent="23">
                    <mxGeometry y="190" width="95.75" height="103.5" as="geometry"/>
                </mxCell>
                <mxCell id="22" value="" style="shape=image;verticalLabelPosition=bottom;labelBackgroundColor=#ffffff;verticalAlign=top;aspect=fixed;imageAspect=0;image=data:image/png,iVBORw0KGgoAAAANSUhEUgAAARwAAAEzCAMAAADU0EwxAAAAAXNSR0IArs4c6QAAAARnQU1BAACxjwv8YQUAAAFiUExURQAAAAAAAAAAAAAAAAAAAAAAAAAAAAAAAAAAAAAAAAAAAAAAAAAAAAAAAAAAAAAAAAAAAAAAAAAAAAAAAAAAAAAAAAAAAAAAAAAAAAAAAAAAAAAAAAAAAAAAAAAAAAAAAAAAAAAAAAAAAAAAAAAAAAAAAAAAAAAAAAAAAAAAAAAAAAAAAAAAAAAAAAAAAAAAAAAAAAAAAAAAAAAAAAAAAAAAAAAAAAAAAAAAAAAAAAAAAAAAAAAAAAAAAAAAAAAAAAAAAAAAAAAAAAAAAAAAAAAAAAAAAAAAAAAAAAAAAAAAAAAAAAAAAAAAAAAAAAAAAAAAAAAAAAAAAAAAAAAAAAAAAAAAAAAAAAAAAAAAAAAAAAAAAAAAAAAAAAAAAAAAAAAAAAAAAAAAAAAAAAAAAAAAAAAAAAAAAAAAAAAAAAAAAAAAAAAAAAAAAAAAAAAAAAAAAAAAAAAAAAAAAAAAAAAAAETQmVcAAAB1dFJOUwABAwQFBgcICQsMDRASFhgcHiAhIicoKywvMDQ1Njg8P0BBQkNISVBRUlNUVldYWVpdX2BoamxwcXh7fn+AgYeIjo+RkpeYnJ+gpKanqaqur7S2t7m7vL2+v8DDxsfIycrLzM3P19ne3+Di5+7v8vf4+fv9/vxYTk0AAAAJcEhZcwAAFxEAABcRAcom8z8AAAk+SURBVHhe7Z1te+NGFYa9pazprmnAgIEAaQUNhi41lBhMAOE2kGLYFEJD6WpLWqBJWTCpC1T/n3Nmjl7syI+iWPZiXc/9YTUayUdz7hmNRtq92hYhhBBCCCGEEEIIIYQQQgghhBBCCCGEEEIISbkX/PTNx3/dbh7/9mcvPGf51MidB1HcDB69YinVxv1ffmKxG8Ab9yyrenju1OI2g7P7llcd3HndojaFXz1jmdXAt/9tQZvCf/qW2eo8+5bFbA7vti23ldlt2sCJ4/9+w3JbmZ9YxCbxc8ttZd6wgE3ioeW2Mr+3gE3izHJbmaasjfP8yXJbmUcWsElQDoByAJQDWJucl7+0fTywtiesTc6XrX6b+Iq1PWFtcr5m9dvE163tCZSTg3IAlAOgHADlACgHQDkAygFQDoByAJQDoBwA5QAoB0A5AMoBUA6AcgCUA6AcAOUAKAdAOQDKAVAOgHIAlAOgHADlACgHQDkAygFQDoByAJQDoBwA5QAoB0A5AMoBUA6AcgCUA6AcAOUAKAdAOQDKAVAOgHIAlAOgHADlACgHQDkAygFQDoByAJQDoBwA5QAoB0A5AMoBUA6AcgCUA6AcAOUAKAdAOQDKAVAOgHIAlAOgHADlACgHQDkAygFQDoByAJQDoBwA5QAoB0A5AMoBUA6AcgCUA6AcAOUAKAdAOQDKAVAOgHIAlAOgHADlACgHQDkAygFQDoByAJQDoBwA5QAoB0A5AMoBbEzOV61+m9i1tiesTc63Prt9vGRtT1ibnI/+tX18ZG1PWJucJkA5AMoB1CYnsoBN4h3LbWXesoBN4m3LbWV+YwGbxJuW28r8wgI2idcst5V50QI2iZcst5W5d2ERm8P79y231fmhhWwMn7xqmdXA3YcWtCmc3rXM6uD5dy1qM/jgc5ZXPTz/O4vbBP7wBcuqLu78+EMLve38/UefsZxq5PM/+PWf//HP2vjY2lrOx/aLGvjwbw+//0XLp26euVsfjy31ch7ZL2rg05+yTP7PecdSL6e216Dt4ebfQWr7urA9UA6AcgCUA6AcAOUAKAdAOQDKAVAOgHIAlAN421Iv54/2i6Zxv7eU9yz1cs7tFwXU93cIT4HvWn7rom/X2UpetiTWxXfsOlsJRw6AcgCUA6AcAOUAKAdAOQDKAVAOgHIAlAOgHMD3LIl18cCus5V88y/r5UW7DiGEEEIIIYQQQgghhBBCCCGEEELI0yMIw7BjZc9BGI6suBoSub5/WdMZX8VxfL5nu5shlEt2reyJ4viJFVdDIk+sWEzv2Ao34Ez/oU4c92x3Mzw9Oe3x7ObXGTs18cx2N8TTk3NQ5TpyT13KPbrZgbMlcroSa2DlDbIdcnoSa9fKG2Q75ATXWrkRsJydYBQOg7btGZ3gMNzfsR1peBDI7DoI+/Mrgrwcd0qrM5Rne/K7vUDm2KkcSH+1NGw7CEYSa+CjOLpybjhcmIF2ZRHSn3/WL8SsCpLTm8hB5cmBr1D2nvi6q2QOkHJrf6Y1ubMUqTI5ekr7WP4ULn3zLUocW8IgrDbRcEd2T21vrl2DS193ka2trsWsCpDT02WXcZaMHnumKhPf6VLqaRLSt24/RU9JS53sPwvrlpgLclDYQ/enQw/I7Zhx6s6VIZIKi+Nk9XQ9ZlWWy+lI+6eHMpbHUznHFs0nUpyG/SCUs+JzVyUF3ZEOWrj9pCqTI6dchOGx61693iiUdK5kEe0uDsPuhKEO4SM5Wer3tOr4IOiHTrdN01q+CPeDkUo/dFUFMauyXE5fYvvbVXt96kr7cvaJ7wX9oRsqso1nh91Wb3HwSn0mJ575w3pzHblSbkIuDZubkCXnqRUHUuuHjg6uieubtqrQZhfFrMpyOUdJFr5t2kVtsZT2gTRoqu2RY7F26TWkPicneV87T5xkcsrDZnJ25FZLZxV5p3Ah2lJ54WqkJ2UykKFTGLMqy+XIUI5chXAQuDE0lJPTR0RbWjGUrdRZkgvIgUzOZdI4ffC4QianPGwmZ+/0PMtTB4xudQilxibxVDq1MGZVlsvRiW8y/xiUwZTzIP2mc5+cduYrFtDfp6UTX/Jhk4IFKw+7ZJ2TxJJbLQvgm1wYsyrL5egAlqF5mFuZyjUimaENaZI2X05Kbr955EAmZ+xLhXLKwxbJ2R246V2Lcgst9k9hzKosl9MK7FE+nQxsINtSIkNPlE3x9x85kMlJR3WBnPKw83J6o6MoXQpohewsDozCmFXRts6vNFM5rZ5Mnp6Zb6ft5fCV++7oInIgk5Mu1wrkSM0CvjILm5ezly1p1JBWyWbxkeCOz2EHqqBtTVflDhmj6UTcPUz8nOjgkRvtVFYbOaRSDs4HSJADN5NTHjYnx62aZakTyYtFEksWYotyCmNWRS87/zFTwubvz85gootANwHIWL0+vcixFeWUh83kBOrmqO93kljSg3allMKYVdEvJXNR9P+8tmj5QFqkq0AZ0OmgSpHzV5RTHjaTIwuMWXq76YSp2/yqo9UNR/KqXBizMqI4XYMoekFtVWc4jtIHuTwYtRXytpJ7RzichLrunMsijxy4mZzysJkcmWayca2zj27nFnmykJJohTEro3n7lxHHjjyiZhq1I6MlzUgvKBttYzrM9FGvq5e5LPLIgRI5vnCDsKmcjhTScd3VW0wLOtrTR5s8xOWyhTEr466QXm9f5xfvSi7yxF5m23JTu7W4dNXMmtyW4+6dQja3kqPNt/ilYVM5+jE5uV3ca5R7j9L7Kv/CpfddUczq6BpcVtyDIBiGGiW5y/TN7cKF7+rwdbO2Wxi69dyutsz1hmxvJUe7O+q795LSsJkcbcrYNXBPHqtJtQa4ci0ciT33MloUszptvbFynCczjfseMo0it56yITrUS8aXvs5/5JHCreTo26LghmlZ2EyO+8YzjUJ3aig7fnYeuACRG0s23gti3oaBe1Z7ZsdZmLELr8zSWSm3MDzyZ0rxVnL0m4jgu7QkbCan1bd1uwzrPV2w2pDoOQfKadK512Pejv4kUhFRNLRZwNPxHXThv0gZ8hS7kr47Stog66v84Qw5YCsoKaW3/G62Hts/iaIomUhh2K7sJS3rjKWtMnZ0yOyHYdJt7dGJzown+Y5ajEkIIYQQQgghhBBCCCGEEEIIIYQQQgjZKK3W/wC7pgcy1yBN6wAAAABJRU5ErkJggg==;" vertex="1" parent="23">
                    <mxGeometry y="98.25" width="95.75" height="103.5" as="geometry"/>
                </mxCell>
                <mxCell id="28" style="edgeStyle=none;html=1;exitX=0;exitY=0.5;exitDx=0;exitDy=0;entryX=1.001;entryY=0.444;entryDx=0;entryDy=0;entryPerimeter=0;fontFamily=Verdana;fontSize=24;fontColor=#FF3399;" edge="1" parent="1" source="24" target="14">
                    <mxGeometry relative="1" as="geometry"/>
                </mxCell>
                <mxCell id="24" value="" style="rounded=0;whiteSpace=wrap;html=1;fontFamily=Verdana;fontSize=24;fontColor=#004C99;strokeColor=#FF3399;strokeWidth=3;fillColor=none;dashed=1;" vertex="1" parent="1">
                    <mxGeometry x="1070" y="320" width="132.12" height="330" as="geometry"/>
                </mxCell>
                <mxCell id="25" value="Clients" style="text;html=1;align=center;verticalAlign=middle;resizable=0;points=[];autosize=1;strokeColor=none;fillColor=none;fontSize=24;fontFamily=Verdana;fontColor=#FF3399;" vertex="1" parent="1">
                    <mxGeometry x="1108.19" y="660" width="100" height="30" as="geometry"/>
                </mxCell>
                <mxCell id="30" value="Linux Server" style="text;html=1;align=center;verticalAlign=middle;resizable=0;points=[];autosize=1;strokeColor=none;fillColor=none;fontSize=24;fontFamily=Verdana;fontColor=#4D4D4D;fontStyle=1" vertex="1" parent="1">
                    <mxGeometry x="790" y="695" width="190" height="30" as="geometry"/>
                </mxCell>
            </root>
        </mxGraphModel>
    </diagram>
</mxfile>